<?xml version="1.0" encoding="UTF-8"?>
<svg width="32px" height="32px" viewBox="0 0 32 32" version="1.1" xmlns="http://www.w3.org/2000/svg" xmlns:xlink="http://www.w3.org/1999/xlink">
    <title>Group 8</title>
    <defs>
        <linearGradient x1="55.5555556%" y1="0%" x2="44.4444444%" y2="100%" id="linearGradient-1">
            <stop stop-color="#32C5FF" offset="0%"></stop>
            <stop stop-color="#B620E0" offset="51.2583893%"></stop>
            <stop stop-color="#F7B500" offset="100%"></stop>
        </linearGradient>
    </defs>
    <g id="logo+视觉" stroke="none" stroke-width="1" fill="none" fill-rule="evenodd">
        <g id="Artboard" transform="translate(-38.000000, -34.000000)">
            <g id="Group-8" transform="translate(38.000000, 34.000000)">
                <circle id="Oval" cx="16" cy="16" r="16"></circle>
                <rect id="Rectangle" fill="url(#linearGradient-1)" transform="translate(14.837939, 14.100000) rotate(-60.000000) translate(-14.837939, -14.100000) " x="11.5979394" y="4.38" width="6.48" height="19.44" rx="3.24"></rect>
                <circle id="Oval" fill="#FFBF1D" cx="23.8352297" cy="10.6549225" r="3.24"></circle>
                <path d="M10.108135,17.9185128 C10.3314419,17.5308833 10.8267037,17.3976734 11.2143332,17.6209803 L11.2143332,17.6209803 L18.0148182,21.5366035 C19.0655996,22.0723121 19.7852297,23.164578 19.7852297,24.4249225 C19.7852297,26.2143251 18.3346323,27.6649225 16.5452297,27.6649225 C15.142603,27.6649225 13.9481462,26.7736407 13.497318,25.5265357 L10.0851874,18.6844341 C9.96395619,18.4414232 9.97257271,18.15383 10.108135,17.9185128 Z" id="Combined-Shape" fill="#557AFF"></path>
            </g>
        </g>
    </g>
</svg>